<svg width="32" height="32" viewBox="0 0 32 32" fill="none" xmlns="http://www.w3.org/2000/svg">
<path d="M21.7295 25.5353C21.6082 24.8152 20.9705 21.3049 19.4028 16.9982C23.2615 16.3808 26.6054 17.4399 26.8527 17.5208C26.5925 19.1362 26.0036 20.6809 25.1224 22.0593C24.2412 23.438 23.0864 24.6209 21.7295 25.5353ZM15.0496 27.5774C12.2687 27.5814 9.57407 26.6119 7.43326 24.837C7.5919 24.9645 7.70233 25.0454 7.70233 25.0454C7.70233 25.0454 9.99328 20.0482 17.0838 17.5784C17.1087 17.5675 17.1367 17.5628 17.1632 17.5535C18.846 21.9239 19.5397 25.5835 19.717 26.6287C18.2413 27.2554 16.6529 27.5782 15.0496 27.5774ZM3.09553 15.6218C3.09553 15.4943 3.10175 15.3698 3.10486 15.2439C3.31638 15.2485 9.22341 15.3838 15.3777 13.5408C15.7198 14.2096 16.0464 14.8939 16.3482 15.5736C16.1897 15.6163 16.0324 15.664 15.8769 15.7167C9.4256 17.8008 6.15325 23.6036 6.15325 23.6036L6.15791 23.6098C4.18226 21.4187 3.09197 18.572 3.09553 15.6218ZM9.94818 4.81246C11.5591 7.02105 13.0417 9.32047 14.3886 11.6993C8.6495 13.2235 3.66632 13.1644 3.35215 13.1582C3.73298 11.3524 4.52664 9.65931 5.67096 8.21142C6.81529 6.76354 8.27925 5.60019 9.94818 4.81246ZM12.1863 4.0146L12.1847 4.01926L12.1474 4.02548L12.1863 4.0146ZM22.9442 6.65238C22.9147 6.69749 21.2132 9.28862 16.6997 10.9792C15.3718 8.55567 13.8799 6.22559 12.2345 4.00526C14.1012 3.54905 16.0506 3.55154 17.9162 4.01251C19.7817 4.47349 21.508 5.37923 22.9473 6.65238H22.9442ZM27.0004 15.502C26.8293 15.4647 22.7825 14.5937 18.6749 15.1101L18.4167 14.4958C18.1673 13.9103 17.9022 13.3315 17.622 12.76C22.3423 10.8315 24.2584 8.06304 24.2818 8.03038C26.0173 10.1359 26.9771 12.7736 27.0004 15.502ZM28.7641 12.8052C28.5784 11.9033 28.3044 11.0218 27.946 10.1736C26.8892 7.6731 25.1274 5.5342 22.8758 4.01771C22.1274 3.51093 21.3315 3.07809 20.4993 2.72525C18.7744 1.99781 16.9215 1.62305 15.0496 1.62305C13.1776 1.62305 11.3246 1.99781 9.59979 2.72525C7.10067 3.78444 4.96235 5.54568 3.44391 7.79553C1.88075 10.1058 1.0474 12.8324 1.05186 15.6218C1.04719 17.4936 1.42178 19.3469 2.15302 21.07C2.50451 21.9037 2.93689 22.7015 3.44391 23.4496C4.96218 25.6992 7.1006 27.46 9.59979 28.5183C10.447 28.8773 11.3281 29.1504 12.2298 29.3333C15.0046 29.9079 17.8885 29.6237 20.4977 28.5183C21.3304 28.1661 22.1269 27.7339 22.8758 27.2274C23.6192 26.7251 24.3129 26.1543 24.9474 25.5213C26.5878 23.8842 27.7952 21.8648 28.4612 19.6451C29.1271 17.4253 29.2323 15.0749 28.7641 12.8052Z" fill="#0F0243"/>
</svg>
