<svg width="32" height="32" viewBox="0 0 32 32" fill="none" xmlns="http://www.w3.org/2000/svg">
<path d="M16 8.71777C12.0484 8.71777 8.77417 11.9355 8.77417 15.9436C8.77417 19.9516 11.9919 23.1694 16 23.1694C20.008 23.1694 23.2258 19.8952 23.2258 15.9436C23.2258 11.992 19.9516 8.71777 16 8.71777ZM16 20.5726C13.4597 20.5726 11.3709 18.4839 11.3709 15.9436C11.3709 13.4033 13.4597 11.3145 16 11.3145C18.5403 11.3145 20.629 13.4033 20.629 15.9436C20.629 18.4839 18.5403 20.5726 16 20.5726Z" fill="#0F0243"/>
<path d="M23.5077 10.1847C24.4116 10.1847 25.1443 9.45198 25.1443 8.54806C25.1443 7.64415 24.4116 6.91138 23.5077 6.91138C22.6037 6.91138 21.871 7.64415 21.871 8.54806C21.871 9.45198 22.6037 10.1847 23.5077 10.1847Z" fill="#0F0243"/>
<path d="M27.7419 4.31452C26.2742 2.79032 24.1855 2 21.8145 2H10.1855C5.27419 2 2 5.27419 2 10.1855V21.7581C2 24.1855 2.79032 26.2742 4.37097 27.7984C5.89516 29.2661 7.92742 30 10.2419 30H21.7581C24.1855 30 26.2177 29.2097 27.6855 27.7984C29.2097 26.3306 30 24.2419 30 21.8145V10.1855C30 7.81452 29.2097 5.78226 27.7419 4.31452ZM27.5161 21.8145C27.5161 23.5645 26.8952 24.9758 25.879 25.9355C24.8629 26.8952 23.4516 27.4032 21.7581 27.4032H10.2419C8.54839 27.4032 7.1371 26.8952 6.12097 25.9355C5.10484 24.9194 4.59677 23.5081 4.59677 21.7581V10.1855C4.59677 8.49193 5.10484 7.08065 6.12097 6.06452C7.08065 5.10484 8.54839 4.59677 10.2419 4.59677H21.871C23.5645 4.59677 24.9758 5.10484 25.9919 6.12097C26.9516 7.1371 27.5161 8.54839 27.5161 10.1855V21.8145Z" fill="#0F0243"/>
</svg>
